<?xml version="1.0" encoding="UTF-8" standalone="no"?>
<!DOCTYPE svg PUBLIC "-//W3C//DTD SVG 1.1//EN" "http://www.w3.org/Graphics/SVG/1.1/DTD/svg11.dtd">
<svg width="100%" height="100%" viewBox="0 0 700 700" version="1.1" xmlns="http://www.w3.org/2000/svg" xmlns:xlink="http://www.w3.org/1999/xlink" xml:space="preserve" xmlns:serif="http://www.serif.com/" style="fill-rule:evenodd;clip-rule:evenodd;stroke-linejoin:round;stroke-miterlimit:2;">
    <g>
        <g transform="matrix(1.4456,0,0,1.4456,-125.045,-48.6922)">
            <path d="M363.24,378.09C363.248,378.301 363.494,379.106 363.881,380.25C365.08,379.27 367.529,368.062 367.443,365.488C366.506,337.008 367.189,277.718 359.045,249.988C319.154,239.207 341.275,296.785 342.244,317.187C342.259,317.519 338.103,321.984 338.045,323.488C336.119,373.347 343.048,443.128 344.345,480.988C351.162,482.215 354.111,479.562 359.044,478.898C358.337,471.058 366.935,460.691 361.134,449.5C363.611,449.176 367.103,449.86 367.443,447.399C357.373,448.59 367.083,428.29 367.494,435.149C367.939,423.958 362.376,424.719 363.24,413.809C363.161,414.754 368.54,415.969 369.54,413.809C373.005,406.273 366.056,386.825 363.888,380.27C363.529,380.543 363.283,380.008 363.24,378.09L363.24,378.09Z"/>
        </g>
        <g transform="matrix(1.4456,0,0,1.4456,-125.045,-48.6922)">
            <path d="M348.54,491.49C345.966,490.045 343.735,490.494 341.962,491.517C343.86,491.674 345.95,491.736 348.54,491.49Z"/>
        </g>
        <g transform="matrix(1.4456,0,0,1.4456,-125.045,-48.6922)">
            <path d="M466.13,147.09C473.489,127.684 456.497,107.453 459.829,92.488C443.536,70.769 424.157,62.414 417.829,44.187C408.353,42.332 392.306,44.031 394.727,42.085C397.161,42.425 398.462,41.621 398.919,39.984C385.927,33.597 371.138,43.292 361.118,33.683L356.926,33.683C329.18,37.902 276.051,63.074 277.125,102.984C274.676,102.625 274.84,99.668 275.024,96.683C273.012,91.504 270.735,103.351 268.723,105.082C185.774,98.746 174.668,213.802 230.922,235.282C226.898,235.516 233.391,242.317 230.922,247.884C184.758,246.063 168.375,261.044 159.524,296.193L159.524,382.295C164.399,421.416 185.493,435.826 233.024,434.795C228.184,461.107 234.547,490.295 235.125,514.596C293.609,520.635 386.875,517.045 459.825,514.596C471.13,482.135 464.025,435.655 464.025,386.486L464.025,237.386C507.791,230.116 509.33,156.238 466.13,147.093L466.13,147.09ZM235.14,411.69C199.187,419.538 180.452,387.147 195.242,384.389C196.336,381.948 193.773,378.412 192.187,378.334C191.855,379.041 191.48,379.662 191.043,380.198C191.051,378.78 191.551,378.299 192.187,378.334C202.144,356.947 162.91,260.244 230.941,277.294C236.992,312.853 235.777,364.786 235.14,411.684L235.14,411.69ZM340.14,495.69C336.726,498.788 338.179,493.694 341.96,491.506C331.636,490.631 329.624,485.424 317.038,493.581C324.929,485.874 304.167,488.096 304.436,495.682C290.612,477.744 267.608,503.889 256.135,478.881C257.823,479.991 259.549,481.069 262.436,480.971C260.354,403.28 258.045,316.931 260.334,241.571C325.381,243.454 368.824,234.895 445.134,237.372C444.463,321.852 447.357,407.472 447.236,497.772C397.17,499.995 374.447,487.948 340.136,495.69L340.14,495.69ZM401.038,216.39C399.929,214.703 398.843,212.976 398.936,210.089C398.952,213.64 385.268,218.593 386.346,210.089C379.698,226.847 369.6,196.292 363.237,214.288C360.124,213.37 364.069,211.601 363.237,207.988C358.191,213.702 352.167,206.273 350.635,216.386C346.749,216.07 349.35,209.281 346.436,207.988C334.053,214.269 310.604,202.179 296.038,216.386C292.925,215.476 296.87,213.699 296.038,210.085C276.886,211.109 254.159,212.808 237.237,203.784C213.272,180.327 228.608,139.823 262.436,134.483C269.62,137.546 278.377,143.769 287.635,138.683C299.061,132.409 296.104,109.011 308.635,92.484C317.76,80.445 328.471,82.874 329.635,71.484C336.905,76.156 343.205,64.921 350.635,63.085C406.522,57.312 451.345,92.171 445.135,161.784C445.538,163.483 447.237,163.874 447.237,165.983C457.835,164.487 462.565,168.855 470.339,170.183C474.03,178.249 480.12,182.136 480.839,189.081C485.265,232.253 429.78,212.077 401.038,216.39L401.038,216.39Z"/>
        </g>
        <g transform="matrix(1.4456,0,0,1.4456,-125.045,-48.6922)">
            <path d="M293.94,378.09C293.975,381.547 298.456,372.184 298.139,367.59C296.073,337.184 295.881,267.613 289.741,250C283.116,251.023 282.331,246.211 275.042,247.898C257.831,259.019 268.932,289.968 270.843,317.199C274.788,373.769 263.561,419.769 275.042,480.999C281.858,482.226 284.807,479.574 289.741,478.91C293.628,457.332 294.01,449.992 293.94,432.711C294.963,435.187 296.178,437.472 298.139,439.011C296.51,427.488 299.811,421.921 291.838,413.812C306.358,409.348 294.045,388.058 293.94,378.089L293.94,378.09Z"/>
        </g>
        <g transform="matrix(1.4456,0,0,1.4456,-125.045,-48.6922)">
            <path d="M331.74,327.69C330.33,300.514 331.189,271.444 323.342,249.991C314.443,244.827 308.451,250.725 302.342,254.19C305.99,322.502 301.369,390.65 310.74,480.98L321.24,480.98C331.318,468.781 325.877,428.105 331.74,434.789C337.513,428.508 333.228,424.797 329.638,420.082C332.834,394.781 333.455,360.781 331.74,327.687L331.74,327.69Z"/>
        </g>
        <g transform="matrix(1.4456,0,0,1.4456,-125.045,-48.6922)">
            <path d="M398.94,378.09C398.983,381.547 403.456,372.184 403.139,367.59C401.073,337.184 400.874,267.613 394.741,250C388.108,251.023 387.319,246.211 380.034,247.898C362.831,259.019 373.936,289.968 375.842,317.199C379.788,373.769 368.561,419.769 380.034,480.999C386.85,482.226 389.807,479.574 394.741,478.91C398.616,457.332 399.01,449.992 398.932,432.711C399.948,435.187 401.171,437.472 403.131,439.011C401.495,427.488 404.803,421.921 396.823,413.812C411.358,409.348 399.046,388.058 398.94,378.089L398.94,378.09Z"/>
        </g>
        <g transform="matrix(1.4456,0,0,1.4456,-125.045,-48.6922)">
            <path d="M436.74,327.69C435.33,300.514 436.197,271.444 428.342,249.991C419.435,244.827 413.459,250.725 407.342,254.19C410.998,322.502 406.369,390.65 415.74,480.98L426.24,480.98C436.318,468.781 430.877,428.105 436.74,434.789C442.506,428.508 438.228,424.797 434.638,420.082C437.834,394.781 438.455,360.781 436.74,327.687L436.74,327.69Z"/>
        </g>
    </g>
</svg>
