<?xml version="1.0" encoding="UTF-8" standalone="no"?>
<!DOCTYPE svg PUBLIC "-//W3C//DTD SVG 1.1//EN" "http://www.w3.org/Graphics/SVG/1.1/DTD/svg11.dtd">
<svg width="100%" height="100%" viewBox="0 0 700 700" version="1.1" xmlns="http://www.w3.org/2000/svg" xmlns:xlink="http://www.w3.org/1999/xlink" xml:space="preserve" xmlns:serif="http://www.serif.com/" style="fill-rule:evenodd;clip-rule:evenodd;stroke-linejoin:round;stroke-miterlimit:2;">
    <g transform="matrix(1.46489,0,0,1.46489,-134.547,-62.4468)">
        <path d="M456.77,42.629L421.071,42.629C420.755,46.516 413.965,43.914 412.673,46.828C400.275,69.43 404.466,108.621 389.564,128.726C372.459,126.695 358.509,129.425 347.572,128.726C351.177,127.554 345.517,122.847 341.271,114.027C336.326,103.754 335.04,93.175 324.47,82.527C321.907,79.937 314.103,79.859 309.771,76.226C309.482,75.98 308.79,68.703 303.47,65.726C243.497,32.206 190.52,83.933 179.57,124.527L179.57,151.828C187.707,185 206.879,207.121 236.269,219.027C220.003,306.324 294.394,336.557 339.169,376.527C336.798,422.054 341.95,451.875 337.067,496.227C315.024,499.388 279.028,488.587 269.868,504.626C268.958,526.587 299.809,519.333 318.169,519.333C337.376,519.333 359.978,519.938 376.97,519.333C395.083,518.684 424.318,522.727 429.47,506.731C421.193,488.407 378.15,504.848 360.169,496.231C363.513,454.669 353.154,418.391 358.068,387.041C362.119,361.221 386.556,357.057 404.267,342.939C425.529,325.99 457.79,295.201 463.068,261.041C469.404,220.002 450.302,179.221 444.17,132.941C438.236,127.675 420.701,134.007 414.779,128.742C419.505,106.867 419.845,80.617 429.478,63.64C443.091,55.554 480.693,71.452 481.978,51.038C481.595,40.21 462.345,48.26 456.771,42.631L456.77,42.629ZM200.57,141.328C200.875,81.242 304.76,54.922 318.17,128.726C297.65,128.972 270.858,127.765 259.369,130.828C246.252,145.012 249.392,175.453 242.568,195.93C218.244,187.906 200.439,166.547 200.568,141.328L200.57,141.328ZM429.47,149.73C436.033,190.433 451.669,239.699 435.771,273.63C429.951,286.048 408.619,300.071 395.873,321.931C377.096,327.654 366.998,342.064 351.771,351.329C340.623,346.376 330.326,340.575 322.373,332.431C320.588,332.045 320.396,333.256 320.271,334.533C303.935,309.115 260.228,292.244 257.271,248.431C255.17,217.212 269.732,187.04 271.97,151.829C301.353,151.251 354.107,151.384 387.47,151.829C383.087,189.446 371.923,220.282 368.572,258.929C329.662,275.179 314.709,237.456 274.072,242.128C262.521,263.644 288.369,259.077 299.271,263.128C315.869,269.304 337.333,290.823 364.361,282.026C365.349,296.514 348.779,318.034 366.463,324.026C385.26,319.721 378.697,290.057 385.361,273.628C392.494,258.358 424.474,267.94 429.463,250.526C425.209,232.858 396.818,248.897 389.553,246.327C398.197,215.772 401.471,179.843 410.553,149.725C416.869,149.729 423.17,149.729 429.471,149.729L429.47,149.73Z"/>
    </g>
</svg>
