<?xml version="1.0" encoding="UTF-8" standalone="no"?>
<!DOCTYPE svg PUBLIC "-//W3C//DTD SVG 1.1//EN" "http://www.w3.org/Graphics/SVG/1.1/DTD/svg11.dtd">
<svg width="100%" height="100%" viewBox="0 0 700 700" version="1.1" xmlns="http://www.w3.org/2000/svg" xmlns:xlink="http://www.w3.org/1999/xlink" xml:space="preserve" xmlns:serif="http://www.serif.com/" style="fill-rule:evenodd;clip-rule:evenodd;stroke-linejoin:round;stroke-miterlimit:2;">
    <g>
        <g transform="matrix(1.23163e-16,-1.5614,1.5614,1.23163e-16,-90.1431,891.636)">
            <path d="M366.33,61.164C310.268,57.148 285.627,65.844 250.83,82.164C244.889,83.898 245.389,79.207 240.33,80.062C230.756,99.679 215.725,91.523 208.83,109.46C200.455,110.617 202.502,110.617 194.131,109.46C187.725,117.859 191.236,123.257 183.631,130.46C183.545,127.566 184.619,125.851 185.733,124.16C179.014,130.738 169.608,134.633 171.034,149.359C164.444,147.023 165.487,148.378 160.534,151.46C144.671,182.233 124.292,215.343 131.136,248.062C127.171,246.488 129.675,241.797 124.835,245.961C122.534,253.957 130.389,259.078 122.733,260.66L122.733,292.16C130.46,378.066 178.381,436.73 238.233,476.96C262.198,481.257 281.327,502.284 303.335,495.858C381.007,518.128 454.735,489.725 500.735,443.358C536.235,407.569 564.434,356.346 570.036,298.458C581.837,176.438 489.044,69.958 366.336,61.158L366.33,61.164ZM549.03,308.964C536.038,412.354 429.13,506.484 311.73,476.964C294.144,472.546 283.449,461.468 261.332,458.066C260.16,453.789 255.016,453.945 259.23,449.668C245.476,452.695 240.207,435.336 223.531,434.969C225.238,427.707 219.609,426.105 223.531,422.367C220.695,415.402 209.89,416.41 204.633,411.875C205.551,408.761 207.321,412.707 210.934,411.875C203.059,407.851 201.294,397.707 189.934,397.168C191.106,392.89 196.251,393.047 192.036,388.769C172.059,368.539 173.54,335.605 152.138,313.167C153.966,307.058 155.278,310.804 160.536,311.066C150.149,277.464 162.872,229.043 168.935,201.866C181.412,191.245 188.142,174.882 194.134,157.764C210.845,147.186 222.966,132.002 236.134,117.866C266.138,107.436 291.154,87.573 324.333,84.264C395.419,77.166 466.423,110.682 509.133,155.662C536.844,200.115 556.645,248.381 549.031,308.962L549.03,308.964Z"/>
        </g>
        <g transform="matrix(1.23163e-16,-1.5614,1.5614,1.23163e-16,-90.1431,891.636)">
            <path d="M479.73,273.26C456.945,269.498 397.882,265.393 385.222,266.959C372.859,268.498 357.765,267.791 364.23,262.76C357.117,263.502 348.507,258.334 341.128,266.959C341.241,264.272 343.823,264.053 343.23,260.658C335.058,264.885 331.093,262.041 322.23,266.959C326.402,262.119 321.706,264.623 320.128,260.658C306.995,266.162 290.78,257.194 269.73,264.858C278.07,236.393 342.476,215.569 324.332,178.756C318.398,180.49 318.891,175.799 313.832,176.654C278.273,210.392 237.551,238.97 213.032,283.754C220.024,296.004 241.04,312.496 246.634,319.453C249.251,322.707 251.892,322.601 255.032,325.762C273.759,344.532 296.509,377.668 322.231,376.16C322.774,336.941 269.231,323.449 252.93,287.961C325.047,290.164 417.38,291.89 481.83,283.761C483.577,277.816 478.877,278.316 479.733,273.257L479.73,273.26Z"/>
        </g>
    </g>
</svg>
