<?xml version="1.0" encoding="UTF-8" standalone="no"?>
<!DOCTYPE svg PUBLIC "-//W3C//DTD SVG 1.1//EN" "http://www.w3.org/Graphics/SVG/1.1/DTD/svg11.dtd">
<svg width="100%" height="100%" viewBox="0 0 700 700" version="1.1" xmlns="http://www.w3.org/2000/svg" xmlns:xlink="http://www.w3.org/1999/xlink" xml:space="preserve" xmlns:serif="http://www.serif.com/" style="fill-rule:evenodd;clip-rule:evenodd;stroke-linejoin:round;stroke-miterlimit:2;">
    <g transform="matrix(1.44293,0,0,1.44293,-149.194,-51.5138)">
        <path d="M393.21,277.23C419.792,234.582 443.136,201.691 466.702,161.73C478.436,141.839 493.925,122.277 498.21,98.73C457.987,92.957 400.132,91.011 365.91,92.429C360.652,85.078 353.617,88.246 349.109,77.73C353.293,77.293 358.078,86.636 359.617,81.929C348.82,74.004 342.625,56.089 323.91,48.327C326.394,48.632 328.672,52.062 330.211,48.327C319.176,47.906 311.109,30.776 296.609,42.027C291.734,38.956 300.714,35.366 292.41,35.726C257.086,56.558 310.82,76.554 317.609,88.226C309.698,90.116 302.183,92.398 294.507,94.527C293.866,89.687 300.569,92.191 300.807,88.226C271.967,95.46 206.002,73.937 193.707,102.925L193.707,111.323C244.691,188.28 289.781,261.683 338.607,342.323C334.494,335.526 331.842,347.792 336.506,348.632C337.564,355.222 331.561,357.206 338.607,359.124C330.381,401.019 338.135,443.245 336.506,493.524C318.682,496.692 300.752,489.516 288.205,499.825C283.033,508.758 293.185,517.938 300.807,520.825L307.108,520.825C336.116,513.219 374.432,520.336 410.008,516.625C412.414,510.747 412.414,505.715 410.008,499.824C397.442,494.18 371.988,501.453 359.61,495.633C356.766,448.297 362.742,409.035 361.699,371.733C361.383,360.342 357.113,348.038 359.61,336.034C363.035,319.518 382.215,294.862 393.215,277.229L393.21,277.23ZM473.011,113.43C465.546,128.375 457.218,142.438 441.503,149.129C438.659,149.777 439.761,154.387 439.401,157.527C419.616,156.738 416.756,159.977 397.401,159.629C380.725,152.508 378.639,130.789 370.1,115.527C396.475,115.625 434.553,112.617 473.01,113.429L473.011,113.43ZM365.901,165.93C370.581,168.082 367.553,179.992 361.702,178.532C358.053,174.919 362.499,168.669 365.901,165.93ZM231.501,117.629C261.06,112.867 300.423,114.481 347.001,113.43C350.177,121.453 349.357,133.477 353.302,140.731C350.868,144.293 340.876,148.395 342.802,153.333C330.673,155.005 280.431,168.103 265.103,161.731C246.009,153.802 250.017,127.79 231.501,117.629L231.501,117.629ZM351.201,304.539C319.58,268.656 296.486,228.738 271.4,182.739C301.728,184.989 311.736,182.86 342.798,182.739C356.126,223.173 397.818,190.423 412.099,191.137C400.892,230.793 368.361,269.645 351.201,304.537L351.201,304.539Z"/>
    </g>
</svg>
