<?xml version="1.0" encoding="UTF-8" standalone="no"?>
<!DOCTYPE svg PUBLIC "-//W3C//DTD SVG 1.1//EN" "http://www.w3.org/Graphics/SVG/1.1/DTD/svg11.dtd">
<svg width="100%" height="100%" viewBox="0 0 700 700" version="1.1" xmlns="http://www.w3.org/2000/svg" xmlns:xlink="http://www.w3.org/1999/xlink" xml:space="preserve" xmlns:serif="http://www.serif.com/" style="fill-rule:evenodd;clip-rule:evenodd;stroke-linejoin:round;stroke-miterlimit:2;">
    <g transform="matrix(1.54536,0,0,1.54536,-52.419,-77.2625)">
        <path d="M340.66,251.6C334.769,211.873 298.801,184.846 296.558,148.7C294.539,116.071 316.124,81.071 309.16,58.399C303.926,58.618 280.312,55.387 273.461,56.297C275.238,51.766 286.848,57.086 288.16,52.098C284.469,50.891 275.824,54.637 275.558,49.997L248.257,49.997C241.991,56.227 233.968,50.653 227.257,58.395L227.257,52.094C222.761,54.598 215.523,54.36 212.558,58.395C208.831,76.954 213.136,114.946 227.257,138.196C225.202,144.075 221.655,135.141 218.859,140.298C218.273,145.083 219.366,148.188 223.058,148.696C207.859,187.204 186.867,216.962 176.859,255.796L176.859,463.696C181.96,467.938 180.289,476.778 176.859,482.594L176.859,486.793C180.332,488.91 179.144,495.711 181.058,499.383C240.523,508.747 278.824,496.461 338.558,499.383C342.863,452.93 345.671,389.933 342.757,327.183C341.613,302.652 344.246,275.835 340.66,251.597L340.66,251.6ZM202.06,480.5C199.935,460.426 209.673,447.082 206.259,440.602C226.114,435.246 279.716,435.825 317.559,434.301C318.337,448.442 319.063,462.25 323.86,476.301C288.86,484.868 245.977,478.059 202.06,480.5L202.06,480.5ZM323.86,411.203C304.512,413.434 297.778,404.992 283.962,409.101C281.505,408.769 282.185,405.269 281.86,402.801C277.845,409.082 275.841,404.332 269.258,407C262.93,395.188 232.078,407.269 208.36,402.801C206.075,368.465 208.954,357.231 206.259,329.309C249.607,327.207 271.212,323.008 321.759,325.109C326.161,350.101 322.821,382.843 323.86,411.203L323.86,411.203ZM323.86,306.203C299.782,307.953 287.426,299.508 267.161,304.101C262.794,302.929 262.716,300.828 265.059,297.801C259.161,304.906 250.375,297.547 246.161,304.101C243.974,297.109 245.611,299.445 235.661,295.703C233.7,297.25 232.478,299.527 231.462,302.012C228.349,301.094 232.286,299.316 231.462,295.703C226.396,300.945 222.896,294.695 220.962,302.012C218.486,301.383 215.685,290.891 212.564,297.812C208.083,293.191 212.275,279.91 204.165,278.914C204.505,276.457 207.997,277.137 210.466,276.813C206.521,232.852 236.732,207.258 248.267,173.913C252.591,161.409 248.564,153.378 248.267,138.214C248.259,137.761 251.521,124.312 250.369,115.112C249.142,105.354 245.408,95.757 244.068,85.714C259.064,81.163 275.83,82.186 283.966,79.413C283.958,102.722 275.786,129.358 277.665,152.913C281.966,206.968 339.446,231.975 323.86,306.203L323.86,306.203Z"/>
    </g>
</svg>
